<svg width="65" height="66" viewBox="0 0 65 66" fill="none" xmlns="http://www.w3.org/2000/svg">
<path d="M29.1325 0.86099C28.8842 0.920931 27.6641 1.13501 26.4216 1.33638C3.08536 5.12152 -7.95234 33.5867 6.49491 52.725C10.994 58.6848 21.326 65.4333 21.8377 62.7463C21.9018 62.4106 21.2867 61.986 19.7602 61.3119C13.4974 58.5457 7.83014 53.0961 4.73802 46.867C-6.49249 24.2436 12.7217 -1.35771 37.8124 2.798C41.5816 3.42251 42.2362 2.12093 38.5423 1.34642C36.861 0.993864 30.0396 0.642191 29.1325 0.861285V0.86099ZM29.2831 7.53215C24.8708 8.18235 19.1929 10.4415 19.1929 11.547C19.1929 12.4048 19.8301 12.3384 22.159 11.2379C34.9152 5.21099 50.4455 11.8054 55.0663 25.2109C62.7467 47.4933 37.3917 66.3555 18.1388 52.6816C7.44038 45.0832 4.97335 29.9914 12.6535 19.1244C14.6915 16.2407 13.619 15.0215 11.5379 17.8565C-1.28442 35.3244 12.1028 59.9973 33.7353 58.7657C55.5727 57.5226 66.0136 31.3556 50.9864 15.5318C45.4775 9.73077 36.5903 6.45499 29.2834 7.53156L29.2831 7.53215ZM55.5381 11.4661C55.0902 11.914 55.4324 12.7157 56.8663 14.5786C67.4962 28.3886 64.0158 49.0311 49.4206 58.7427C42.8439 63.1187 37.0695 64.3317 26.2713 63.6056C25.2544 63.5371 25.0663 63.615 25.0663 64.1052C25.0663 66.3313 37.9911 65.7277 44.3994 63.2019C63.1908 55.7961 70.5998 31.89 59.2728 15.2105C57.1234 12.0457 56.0424 10.9618 55.5378 11.4664L55.5381 11.4661ZM23.5314 22.7424C22.9973 23.3323 22.9515 24.0242 22.8697 32.7401C22.7354 47.069 21.3092 46.6358 38.6106 37.5209C47.0424 33.0785 47.0897 33.2179 34.9964 26.8742C25.5414 21.9144 24.5915 21.5719 23.5314 22.7424ZM33.9803 28.1634C43.167 32.9616 43.2148 32.9914 42.5723 33.5247C41.8518 34.1229 25.4705 42.5908 25.0344 42.5908C24.6842 42.5908 24.6145 41.0161 24.6145 33.103C24.6145 26.4478 24.7128 23.6149 24.9434 23.6149C25.1241 23.6149 29.191 25.6618 33.9806 28.1634H33.9803Z" fill="white"/>
</svg>
