<svg width="28" height="22" viewBox="0 0 28 22" fill="none" xmlns="http://www.w3.org/2000/svg">
<path d="M27.333 2.83998C26.333 3.33298 25.333 3.50698 24.16 3.66698C25.333 2.99998 26.16 1.99998 26.493 0.666984C25.488 1.27498 24.317 1.73798 23.07 1.98898L23 2.00098C21.969 0.986984 20.56 0.354984 19.004 0.333984H19C16.16 0.333984 13.667 2.84098 13.667 5.84098C13.667 6.33398 13.667 6.66798 13.84 7.00098C9.26197 6.82298 5.22097 4.66398 2.52897 1.36198L2.50697 1.33398C2.08197 2.05998 1.83097 2.93198 1.83097 3.86298C1.83097 3.97198 1.83397 4.08098 1.84097 4.18898L1.83997 4.17398C1.87397 6.05198 2.84897 7.69498 4.31297 8.65498L4.33397 8.66798C3.49397 8.66798 2.66697 8.33498 1.82697 8.00098C1.82697 10.668 3.66697 12.841 6.15997 13.334C5.66697 13.507 5.15997 13.507 4.66697 13.507C4.33397 13.507 3.99997 13.507 3.66697 13.334C4.33397 15.507 6.33397 17.174 8.83997 17.174C7.03997 18.629 4.72397 19.509 2.20297 19.509C2.13197 19.509 2.06097 19.508 1.98997 19.507H2.00097H0.667969C3.03297 21.016 5.90397 21.936 8.98397 22H9.00097C19.001 22 24.508 13.667 24.508 6.49298V5.82598C25.655 5.03598 26.601 4.03898 27.311 2.88198L27.335 2.83998H27.333Z" fill="white"/>
</svg>
